<?xml version="1.0" standalone="no"?>

<svg viewBox="0 0 44 44" style="background-color:#ffffff00" version="1.1" xmlns="http://www.w3.org/2000/svg" xmlns:xlink="http://www.w3.org/1999/xlink" xml:space="preserve" x="0px" y="0px" width="44px" height="44px">
	<g id="Layer%201">
		<path d="M 4 4 L 40 4 L 40 25 L 4 25 L 4 4 L 4 4 ZM 1 1 L 1 28 L 21 28 L 21 33 L 10 43 L 12 43 L 20 37 L 23 37 L 27 37 L 35 43 L 37 43 L 26 33 L 26 28 L 43 28 L 43 1 L 1 1 L 1 1 Z" fill="#333333"/>
		<path d="M 28.6 11.9 C 28.6 9.6 30.4 7.8 32.6 7.8 C 34.8 7.8 36.6 9.6 36.6 11.9 C 36.6 14.1 34.8 15.9 32.6 15.9 C 30.4 15.9 28.6 14.1 28.6 11.9 Z" fill="#333333"/>
		<rect x="28.6" y="18.7" width="3.3" height="3.3" fill="#333333"/>
		<rect x="33.3" y="18.7" width="3.3" height="3.3" fill="#333333"/>
		<path d="M 6.8 20.9 C 7.1 21 7.4 20.8 7.5 20.5 L 9.2 15.5 L 12.5 21.1 C 12.8 21.7 13.3 21.7 13.6 21.2 L 17.3 15.2 L 20.7 20.9 C 21.1 21.5 21.7 21.4 21.9 20.8 L 25.1 10.2 C 25.1 9.9 25 9.6 24.7 9.5 L 24.5 9.5 C 24.2 9.4 23.9 9.5 23.8 9.8 L 21.1 19 L 17.8 13.6 C 17.5 13.1 17 13.1 16.7 13.6 L 13.1 19.6 L 9.6 13.7 C 9.2 13.1 8.6 13.1 8.4 13.8 L 6.2 20.1 C 6.1 20.4 6.3 20.7 6.6 20.8 L 6.8 20.9 L 6.8 20.9 Z" fill="#333333"/>
	</g>
</svg>