<?xml version="1.0" standalone="no"?>

<svg viewBox="0 0 44 44" style="background-color:#ffffff00" version="1.1" xmlns="http://www.w3.org/2000/svg" xmlns:xlink="http://www.w3.org/1999/xlink" xml:space="preserve" x="0px" y="0px" width="44px" height="44px">
	<g id="Layer%201">
		<path d="M 37 18.9 C 41.3 14.8 41.3 8.2 37 4.1 C 32.7 0 25.8 0 21.6 4.1 L 37 18.9 L 37 18.9 Z" fill="#333333"/>
		<path d="M 17.7 20.1 C 18.4 19.4 19.6 19.4 20.3 20.1 C 21 20.8 21 21.9 20.3 22.6 C 19.6 23.3 18.4 23.3 17.7 22.6 C 17 21.9 17 20.8 17.7 20.1 L 17.7 20.1 ZM 35.7 20.1 L 20.3 5.3 C 18 7.5 17.4 10.5 17.8 13.4 C 13.4 19 4.9 30 4.9 30 L 7.5 32.5 L 10 35 C 10 35 21.5 26.7 27.3 22.5 C 30.3 22.9 33.4 22.4 35.7 20.1 L 35.7 20.1 Z" fill="#333333"/>
		<path d="M 8.1 30.6 C 6.2 32.7 3.7 35.4 3.7 38.2 C 3.7 47.3 12 41.1 15.3 38.7 C 19.5 35.6 28 28.4 32.7 27.9 C 35.1 27.7 37.2 29.2 37.2 36.1 C 37.2 37.7 36.9 39.4 36.4 40.9 L 37.6 41.3 C 38.2 39.6 38.5 37.8 38.5 36.1 C 38.5 20.5 27.9 27.7 20.7 33.1 C 17.2 35.6 13.2 39.2 9.3 41 C 6.5 42.4 5 42.2 5 38.2 C 5 36 7.3 33.3 8.9 31.6 L 8.1 30.6 L 8.1 30.6 Z" fill="#333333"/>
	</g>
</svg>