<?xml version="1.0" standalone="no"?>
<svg viewBox="0 0 44 44" style="background-color:#ffffff00" version="1.1" xmlns="http://www.w3.org/2000/svg" xmlns:xlink="http://www.w3.org/1999/xlink" xml:space="preserve" x="0px" y="0px" width="44px" height="44px">
	<rect x="16.8" y="8.6" width="2.5" height="2.5" fill="#333333"/>
	<rect x="22.1" y="8.6" width="13.1" height="2.5" fill="#333333"/>
	<rect x="16.8" y="13.8" width="7.8" height="2.5" fill="#333333"/>
	<rect x="14.2" y="19.3" width="7.8" height="2.5" fill="#333333"/>
	<rect x="27.3" y="13.8" width="5.3" height="2.5" fill="#333333"/>
	<rect x="24.7" y="19.3" width="5.3" height="2.5" fill="#333333"/>
	<path d="M 24.7 29.8 L 9.8 29.8 L 13.6 3.5 L 40.1 3.5 L 35.5 36 L 35.5 36 C 35.5 38.9 33 40.5 30.1 40.5 C 26.3 40.5 24.7 39 24.7 36.4 L 24.7 29.8 L 24.7 29.8 ZM 3.5 32.3 L 22.2 32.3 L 22.2 36.4 C 22.2 38 22.7 39.4 23.5 40.4 L 8.7 40.4 L 8.7 40.5 C 5.9 40.4 3.5 39.3 3.5 36.4 L 3.5 32.3 L 3.5 32.3 ZM 1 29.8 L 1 36.4 C 1 40.7 4.5 43 8.8 43 L 8.8 43 L 29.1 43 C 29.4 43 29.7 43 30 43 C 34.2 43 37.6 40.4 38 36.4 L 43 1 L 11.4 1 L 11.4 1.2 L 7.2 29.8 L 1 29.8 L 1 29.8 Z" fill="#333333"/>
</svg>